<svg width="179" height="45" viewBox="0 0 179 45" fill="none" xmlns="http://www.w3.org/2000/svg">
<path d="M14.6032 6.28559C14.685 5.05122 14.3078 4.533 13.0712 4.56539L4.94458 4.77819C3.70792 4.81057 3.20177 5.35192 3.12 6.58629L0.705824 43.0297C0.624054 44.264 1.06011 44.7807 2.29677 44.7483L10.4234 44.5355C11.66 44.5031 12.1073 43.9633 12.189 42.729L13.1236 28.6219L30.9078 28.1562L29.9733 42.2633C29.8915 43.4976 30.3276 44.0143 31.5642 43.9819L39.6908 43.7691C40.9275 43.7368 41.3747 43.1969 41.4565 41.9626L43.8707 5.5192C43.9525 4.28483 43.5753 3.76661 42.3386 3.79899L34.212 4.01179C32.9754 4.04417 32.4692 4.58553 32.3875 5.8199L31.4919 19.3392L13.7076 19.8049L14.6032 6.28559Z" fill="white"/>
<path d="M72.9116 41.1389L73.7838 27.9723L90.9273 4.34566C91.6412 3.32944 91.1069 2.52195 89.8702 2.55433L81.4492 2.77484C79.8592 2.81648 79.3964 3.59141 78.6824 4.60762L71.4527 15.2416C70.931 16.018 70.0836 17.2725 68.6834 19.7736C67.6653 17.3945 67.0404 16.1786 66.62 15.4268L61.3103 5.06253C60.7877 4.07869 60.3672 3.3269 58.7772 3.36853L49.6495 3.60755C48.354 3.64147 47.7617 4.59582 48.2921 5.4621L62.2461 29.0959L61.4284 41.4396C61.3466 42.674 61.7827 43.1906 63.0193 43.1583L71.1459 42.9455C72.3825 42.9131 72.8298 42.3733 72.9116 41.1389Z" fill="white"/>
<path d="M116.834 39.9887L117.706 26.8221L134.85 3.19551C135.564 2.17929 135.029 1.3718 133.793 1.40418L125.372 1.6247C123.782 1.66633 123.319 2.44126 122.605 3.45747L115.375 14.0914C114.853 14.8679 114.006 16.1223 112.606 18.6234C111.588 16.2443 110.963 15.0284 110.542 14.2766L105.233 3.91238C104.71 2.92854 104.29 2.17675 102.7 2.21838L93.5719 2.4574C92.2763 2.49132 91.684 3.44568 92.2145 4.31195L106.168 27.9457L105.351 40.2894C105.269 41.5238 105.705 42.0405 106.942 42.0081L115.068 41.7953C116.305 41.7629 116.752 41.2231 116.834 39.9887Z" fill="white"/>
<path d="M160.911 27.6271C173.042 27.3094 177.581 21.7922 177.959 16.0906L178.278 11.2707C178.656 5.56906 174.829 0.329596 162.698 0.647257L140.91 1.21781C139.673 1.2502 139.167 1.79155 139.085 3.02592L136.671 39.4693C136.589 40.7037 137.025 41.2203 138.262 41.188L146.389 40.9752C147.625 40.9428 148.072 40.403 148.154 39.1686L148.898 27.9417L160.911 27.6271ZM160.933 9.55382C164.584 9.45821 166.94 10.2767 166.772 12.8042L166.617 15.1554C166.449 17.6829 163.976 18.6278 160.325 18.7234L149.49 19.0072L150.097 9.83756L160.933 9.55382Z" fill="white"/>
</svg>
